# Max2Obj Version 4.0 Mar 10th, 2001
#
mtllib ./Stone_Forest_3_LOD3.mtl
g
# object Stone_F_3_LOD3 to come ...
#
v  -29.227722 -17.105770 19.996639
v  -5.105589 -21.464472 24.394716
v  21.492277 -12.905285 21.152548
v  -30.289139 -24.728207 -6.657776
v  -7.833281 -37.055733 -8.531442
v  25.620491 -20.527727 -6.657776
v  -26.160921 -18.983898 -20.168238
v  -0.913517 -23.342598 -24.972780
v  21.492275 -14.783417 -20.168238
v  -7.780722 86.176071 9.039475
v  9.130074 77.241196 15.939972
v  21.492275 66.743507 9.039478
v  -11.908939 87.894920 -0.000001
v  7.119905 91.997719 -4.297586
v  25.620491 68.462372 -0.000001
v  -3.588652 80.662552 -16.953917
v  13.295563 74.214622 -20.494610
v  21.492275 61.229988 -15.391539
v  -29.752872 32.417610 23.401735
v  0.048134 24.112579 30.880989
v  26.653708 24.112579 24.557648
v  34.915714 24.112579 -0.000001
v  26.466480 23.408314 -22.298046
v  4.240492 23.408314 -33.785007
v  -26.343460 31.713341 -22.298046
v  -35.067966 32.417603 -0.000001
# 26 vertices

vt  0.728440 0.434302 0.000000
vt  0.169651 0.488916 0.000000
vt  0.921394 0.421574 0.000000
vt  0.819255 0.489444 0.000000
vt  0.669712 0.257168 0.000000
vt  0.504281 0.244099 0.000000
vt  0.981185 0.851551 0.000000
vt  0.506980 0.029792 0.000000
vt  0.532186 0.932736 0.000000
vt  0.547699 0.721234 0.000000
vt  0.527554 0.508009 0.000000
vt  0.689917 0.870132 0.000000
vt  0.762332 0.718023 0.000000
vt  0.669656 0.570863 0.000000
vt  0.599664 0.059473 0.000000
vt  0.621619 0.237172 0.000000
vt  0.967700 0.932602 0.000000
vt  0.175216 0.515877 0.000000
vt  0.174714 0.738544 0.000000
vt  0.174500 0.960234 0.000000
vt  0.264366 0.920761 0.000000
vt  0.312876 0.740435 0.000000
vt  0.267366 0.567937 0.000000
vt  0.868408 0.964086 0.000000
vt  0.864817 0.732656 0.000000
vt  0.965671 0.766362 0.000000
vt  0.856678 0.851430 0.000000
vt  0.773365 0.939304 0.000000
vt  0.733962 0.849010 0.000000
vt  0.770962 0.759225 0.000000
vt  0.259165 0.094190 0.000000
vt  0.314339 0.298870 0.000000
vt  0.168977 0.055004 0.000000
vt  0.165434 0.305063 0.000000
vt  0.931094 0.051142 0.000000
vt  0.961015 0.248926 0.000000
vt  0.816225 0.030785 0.000000
vt  0.815720 0.260291 0.000000
vt  0.727008 0.063169 0.000000
vt  0.056703 0.531708 0.000000
vt  0.035919 0.737960 0.000000
vt  0.074964 0.907685 0.000000
vt  0.327804 0.723843 0.000000
vt  0.397119 0.860620 0.000000
vt  0.390748 0.572145 0.000000
vt  0.501231 0.471181 0.000000
vt  0.593786 0.411585 0.000000
vt  0.415238 0.405617 0.000000
vt  0.418960 0.066635 0.000000
vt  0.387048 0.231800 0.000000
vt  0.052482 0.442968 0.000000
vt  0.272804 0.439291 0.000000
vt  0.069180 0.100681 0.000000
vt  0.030301 0.306472 0.000000
# 54 texture vertices

vn  -0.889682 -5.539738 1.379372
vn  -0.441122 -9.012198 2.793316
vn  1.225635 -6.359214 2.746099
vn  -3.957134 -8.375064 -0.796506
vn  -0.066199 -2.844548 -0.141737
vn  1.144802 -2.057659 -0.092031
vn  -2.791528 -6.208549 -2.978871
vn  -0.003966 -1.995933 -0.931842
vn  1.017682 -1.678252 -0.685417
vn  -0.536722 2.411754 0.559807
vn  0.514566 1.967193 0.853504
vn  6.637438 10.134607 3.448412
vn  -0.874791 2.429299 -0.039594
vn  0.335981 2.772707 -0.190350
vn  4.144905 7.220805 0.294215
vn  0.183815 7.405479 -1.325428
vn  2.508279 6.405155 -1.489332
vn  3.964585 5.225816 -0.936942
vn  -1.189996 0.776966 0.831059
vn  0.069233 0.365123 1.287623
vn  3.354831 0.609701 3.682626
vn  1.654293 0.039839 -0.006922
vn  1.333343 0.117479 -0.767447
vn  0.077318 0.108819 -1.297014
vn  -3.877943 0.643855 -3.603858
vn  -1.603982 0.698153 -0.033950
# 26 vertex normals

g Stone_F_3_LOD3
usemtl Stone_F_3
s 1
f 1/17/1 4/24/4 5/27/5
f 5/27/5 2/7/2 1/17/1
f 2/7/2 5/27/5 6/25/6
f 6/25/6 3/26/3 2/7/2
f 4/24/4 7/28/7 8/29/8
f 8/29/8 5/27/5 4/24/4
f 5/27/5 8/29/8 9/30/9
f 9/30/9 6/25/6 5/27/5
f 10/44/10 11/43/11 14/10/14
f 14/10/14 13/9/13 10/44/10
f 11/43/11 12/45/12 15/11/15
f 15/11/15 14/10/14 11/43/11
f 13/9/13 14/10/14 17/13/17
f 17/13/17 16/12/16 13/9/13
f 14/10/14 15/11/15 18/14/18
f 18/14/18 17/13/17 14/10/14
f 1/47/1 2/46/2 20/6/20
f 20/6/20 19/16/19 1/47/1
f 2/46/2 3/48/3 21/50/21
f 21/50/21 20/6/20 2/46/2
f 19/16/19 20/6/20 11/8/11
f 11/8/11 10/15/10 19/16/19
f 20/6/20 21/50/21 12/49/12
f 12/49/12 11/8/11 20/6/20
f 3/52/3 6/2/6 22/34/22
f 22/34/22 21/32/21 3/52/3
f 6/2/6 9/51/9 23/54/23
f 23/54/23 22/34/22 6/2/6
f 21/32/21 22/34/22 15/33/15
f 15/33/15 12/31/12 21/32/21
f 22/34/22 23/54/23 18/53/18
f 18/53/18 15/33/15 22/34/22
f 9/3/9 8/4/8 24/38/24
f 24/38/24 23/36/23 9/3/9
f 8/4/8 7/1/7 25/5/25
f 25/5/25 24/38/24 8/4/8
f 23/36/23 24/38/24 17/37/17
f 17/37/17 18/35/18 23/36/23
f 24/38/24 25/5/25 16/39/16
f 16/39/16 17/37/17 24/38/24
f 7/21/7 4/20/4 26/19/26
f 26/19/26 25/22/25 7/21/7
f 4/20/4 1/42/1 19/41/19
f 19/41/19 26/19/26 4/20/4
f 25/22/25 26/19/26 13/18/13
f 13/18/13 16/23/16 25/22/25
f 26/19/26 19/41/19 10/40/10
f 10/40/10 13/18/13 26/19/26
# 48 faces

g
