# Max2Obj Version 4.0 Mar 10th, 2001
#
mtllib ./Stone_F_3_LOD2.mtl
g
# object Stone_F_3_LOD2 to come ...
#
v  -17.976229 -20.916353 17.833878
v  -6.794579 -21.923349 17.228367
v  6.304352 -24.223816 19.974430
v  18.661545 -21.668365 18.748808
v  -21.266401 -25.136959 7.132695
v  -8.230134 -25.774963 8.230132
v  9.093677 -30.756516 9.093682
v  20.779831 -24.965033 7.100863
v  -24.723827 -27.966448 -8.134848
v  -10.911129 -37.504128 -10.911132
v  9.380608 -31.096016 -9.380608
v  19.345879 -23.481262 -6.535485
v  -22.715279 -24.326824 -22.373278
v  -8.157930 -27.580082 -24.167465
v  7.424967 -25.184341 -21.217308
v  17.314154 -20.349430 -17.109360
v  -22.279221 49.637360 21.957323
v  -7.540599 57.981552 22.409649
v  7.706209 58.226700 23.105967
v  18.331194 48.139969 18.104420
v  -20.391159 57.324371 7.328652
v  -9.459803 84.747841 9.459805
v  11.862072 87.594772 11.862076
v  24.156837 58.587875 8.149671
v  -26.128515 59.269577 -9.013687
v  -11.482546 87.187912 -11.482540
v  11.234887 87.323997 -11.234878
v  26.723494 59.427826 -8.252951
v  -18.677444 48.285759 -18.518688
v  -6.686461 57.108292 -19.693419
v  7.243105 57.561790 -21.205004
v  19.630768 48.678551 -19.614033
v  -26.085211 -6.247467 26.315903
v  -9.349133 -9.333939 26.119804
v  10.128618 -9.850224 30.345711
v  24.023621 -5.852741 23.964203
v  28.001183 -9.566833 9.702036
v  25.196217 -9.019577 -8.789959
v  20.826118 -5.268734 -20.632141
v  9.022852 -9.118608 -24.380329
v  -9.779843 -9.633808 -29.004066
v  -24.130062 -5.871071 -24.062687
v  -34.243828 -10.339611 -10.873003
v  -33.659752 -10.384794 10.990126
v  -25.941187 21.868820 25.907553
v  -9.340799 24.082069 26.868401
v  9.675361 24.274342 28.051064
v  21.690918 21.266342 21.671623
v  33.425819 24.862793 10.837348
v  32.993427 24.760071 -10.674324
v  25.304369 21.778961 -25.278625
v  11.471107 25.193413 -36.202736
v  -9.934136 24.400181 -29.331362
v  -21.737326 21.272972 -21.718601
v  -28.738815 24.304749 -9.767672
v  -34.596985 24.917648 10.998438
# 56 vertices

vt  0.932327 0.049517 0.000000
vt  0.124434 0.052280 0.000000
vt  0.193532 0.054031 0.000000
vt  0.721523 0.059378 0.000000
vt  0.775343 0.036090 0.000000
vt  0.856371 0.027430 0.000000
vt  0.957830 0.141755 0.000000
vt  0.454079 0.294142 0.000000
vt  0.553363 0.292488 0.000000
vt  0.833013 0.961638 0.000000
vt  0.449896 0.116159 0.000000
vt  0.544750 0.116795 0.000000
vt  0.463693 0.464260 0.000000
vt  0.545376 0.468556 0.000000
vt  0.326818 0.661759 0.000000
vt  0.478272 0.663092 0.000000
vt  0.588415 0.650570 0.000000
vt  0.748245 0.659094 0.000000
vt  0.323740 0.778140 0.000000
vt  0.481692 0.771940 0.000000
vt  0.395331 0.864049 0.000000
vt  0.595659 0.769397 0.000000
vt  0.503267 0.937631 0.000000
vt  0.746971 0.767013 0.000000
vt  0.696649 0.870884 0.000000
vt  0.577545 0.938465 0.000000
vt  0.395758 0.416066 0.000000
vt  0.389800 0.252815 0.000000
vt  0.775228 0.971191 0.000000
vt  0.364418 0.108175 0.000000
vt  0.215635 0.969111 0.000000
vt  0.221118 0.791829 0.000000
vt  0.210350 0.515068 0.000000
vt  0.222661 0.616181 0.000000
vt  0.051287 0.525896 0.000000
vt  0.126102 0.511460 0.000000
vt  0.024838 0.622835 0.000000
vt  0.113650 0.612628 0.000000
vt  0.110004 0.786602 0.000000
vt  0.035350 0.762546 0.000000
vt  0.125358 0.964250 0.000000
vt  0.066459 0.898197 0.000000
vt  0.760874 0.910443 0.000000
vt  0.905070 0.971120 0.000000
vt  0.979069 0.905233 0.000000
vt  0.968762 0.968478 0.000000
vt  0.740822 0.828196 0.000000
vt  0.824359 0.911095 0.000000
vt  0.914969 0.904470 0.000000
vt  0.767106 0.753264 0.000000
vt  0.819767 0.794762 0.000000
vt  0.831999 0.710190 0.000000
vt  0.928885 0.807135 0.000000
vt  0.915136 0.737591 0.000000
vt  0.971350 0.773432 0.000000
vt  0.990812 0.833968 0.000000
vt  0.045638 0.444300 0.000000
vt  0.025383 0.307251 0.000000
vt  0.057897 0.172487 0.000000
vt  0.114562 0.483349 0.000000
vt  0.107572 0.307622 0.000000
vt  0.116064 0.132355 0.000000
vt  0.197738 0.491453 0.000000
vt  0.221736 0.312376 0.000000
vt  0.212278 0.132275 0.000000
vt  0.720281 0.432098 0.000000
vt  0.670638 0.289313 0.000000
vt  0.702370 0.141035 0.000000
vt  0.787394 0.493034 0.000000
vt  0.767203 0.309291 0.000000
vt  0.874397 0.123902 0.000000
vt  0.770659 0.120401 0.000000
vt  0.921225 0.425752 0.000000
vt  0.862575 0.487791 0.000000
vt  0.965957 0.287136 0.000000
vt  0.888618 0.306884 0.000000
vt  0.285803 0.924722 0.000000
vt  0.308385 0.780451 0.000000
vt  0.260305 0.556510 0.000000
vt  0.313344 0.639194 0.000000
vt  0.487672 0.502771 0.000000
vt  0.564680 0.491312 0.000000
vt  0.393511 0.564802 0.000000
vt  0.668215 0.565243 0.000000
vt  0.457447 0.033394 0.000000
vt  0.402450 0.020161 0.000000
vt  0.528954 0.023273 0.000000
vt  0.593320 0.039128 0.000000
vt  0.602613 0.409930 0.000000
vt  0.617880 0.267713 0.000000
vt  0.623639 0.123471 0.000000
vt  0.249854 0.072815 0.000000
vt  0.069596 0.084592 0.000000
vt  0.271698 0.441237 0.000000
vt  0.319782 0.299467 0.000000
vt  0.284062 0.151204 0.000000
# 96 texture vertices

vn  -0.133113 -2.272670 1.615700
vn  -0.579701 -3.717041 2.454604
vn  -0.395379 -3.513412 2.802258
vn  0.731456 -2.380244 2.411961
vn  -1.818261 -3.915401 1.796238
vn  -0.106365 -0.908626 0.403838
vn  0.137485 -0.954191 0.265741
vn  0.693023 -0.715465 0.088484
vn  -2.527201 -3.126285 -0.527053
vn  -0.145898 -0.983678 -0.105319
vn  0.396186 -0.906812 -0.143975
vn  0.767536 -0.608432 -0.201740
vn  -1.638681 -2.384382 -2.578678
vn  -0.042352 -0.582647 -0.811621
vn  0.379956 -0.549409 -0.744166
vn  0.701721 -0.442587 -0.558304
vn  -0.643528 0.348905 0.681276
vn  -0.134441 0.290909 0.947258
vn  0.276756 0.250281 0.927775
vn  4.008165 1.290648 4.541826
vn  -0.928918 0.339835 0.147048
vn  -0.506842 0.727092 0.463086
vn  0.395858 0.770564 0.499527
vn  3.106593 1.192543 2.019226
vn  -0.915429 0.315328 -0.250115
vn  -0.486808 0.751053 -0.446023
vn  0.405001 0.767931 -0.496242
vn  3.265295 1.326891 -1.153821
vn  -0.928201 0.769045 -1.712833
vn  -1.257563 1.151581 -3.916629
vn  0.792419 1.173694 -3.758325
vn  1.309024 0.629901 -1.616403
vn  -0.513751 -0.262803 0.816698
vn  -0.105621 -0.315317 0.943090
vn  0.149466 -0.297614 0.942914
vn  2.095644 -0.877842 2.934784
vn  0.944570 -0.311872 0.102581
vn  0.902366 -0.320016 -0.288662
vn  0.687033 -0.300244 -0.661695
vn  0.276907 -0.229764 -0.933023
vn  -0.083350 -0.127072 -0.988385
vn  -1.870817 -0.218199 -3.685246
vn  -0.942526 -0.164369 -0.290907
vn  -0.892053 -0.341040 0.296536
vn  -0.531927 0.080079 0.842995
vn  -0.059047 0.065572 0.996099
vn  0.215911 0.103062 0.970959
vn  2.649478 0.582364 4.063466
vn  0.921769 0.089840 0.377188
vn  0.960193 0.021451 -0.278514
vn  0.759363 0.016773 -0.650451
vn  0.192283 0.072917 -0.978627
vn  -0.376706 0.071731 -0.923551
vn  -3.154364 0.465126 -3.617467
vn  -0.916402 0.164677 -0.364814
vn  -0.973430 0.186947 0.132234
# 56 vertex normals

g Stone_F_3_LOD2
usemtl Stone_F_3
s 1
f 1/29/1 5/43/5 6/48/6
f 6/48/6 2/10/2 1/29/1
f 2/10/2 6/48/6 7/49/7
f 7/49/7 3/44/3 2/10/2
f 3/44/3 7/49/7 8/45/8
f 8/45/8 4/46/4 3/44/3
f 5/43/5 9/47/9 10/51/10
f 10/51/10 6/48/6 5/43/5
f 6/48/6 10/51/10 11/53/11
f 11/53/11 7/49/7 6/48/6
f 7/49/7 11/53/11 12/56/12
f 12/56/12 8/45/8 7/49/7
f 9/47/9 13/50/13 14/52/14
f 14/52/14 10/51/10 9/47/9
f 10/51/10 14/52/14 15/54/15
f 15/54/15 11/53/11 10/51/10
f 11/53/11 15/54/15 16/55/16
f 16/55/16 12/56/12 11/53/11
f 17/83/17 18/81/18 22/16/22
f 22/16/22 21/15/21 17/83/17
f 18/81/18 19/82/19 23/17/23
f 23/17/23 22/16/22 18/81/18
f 19/82/19 20/84/20 24/18/24
f 24/18/24 23/17/23 19/82/19
f 21/15/21 22/16/22 26/20/26
f 26/20/26 25/19/25 21/15/21
f 22/16/22 23/17/23 27/22/27
f 27/22/27 26/20/26 22/16/22
f 23/17/23 24/18/24 28/24/28
f 28/24/28 27/22/27 23/17/23
f 25/19/25 26/20/26 30/23/30
f 30/23/30 29/21/29 25/19/25
f 26/20/26 27/22/27 31/26/31
f 31/26/31 30/23/30 26/20/26
f 27/22/27 28/24/28 32/25/32
f 32/25/32 31/26/31 27/22/27
f 1/86/1 2/85/2 34/11/34
f 34/11/34 33/30/33 1/86/1
f 2/85/2 3/87/3 35/12/35
f 35/12/35 34/11/34 2/85/2
f 3/87/3 4/88/4 36/91/36
f 36/91/36 35/12/35 3/87/3
f 33/30/33 34/11/34 46/8/46
f 46/8/46 45/28/45 33/30/33
f 34/11/34 35/12/35 47/9/47
f 47/9/47 46/8/46 34/11/34
f 35/12/35 36/91/36 48/90/48
f 48/90/48 47/9/47 35/12/35
f 45/28/45 46/8/46 18/13/18
f 18/13/18 17/27/17 45/28/45
f 46/8/46 47/9/47 19/14/19
f 19/14/19 18/13/18 46/8/46
f 47/9/47 48/90/48 20/89/20
f 20/89/20 19/14/19 47/9/47
f 4/93/4 8/2/8 37/62/37
f 37/62/37 36/59/36 4/93/4
f 8/2/8 12/3/12 38/65/38
f 38/65/38 37/62/37 8/2/8
f 12/3/12 16/92/16 39/96/39
f 39/96/39 38/65/38 12/3/12
f 36/59/36 37/62/37 49/61/49
f 49/61/49 48/58/48 36/59/36
f 37/62/37 38/65/38 50/64/50
f 50/64/50 49/61/49 37/62/37
f 38/65/38 39/96/39 51/95/51
f 51/95/51 50/64/50 38/65/38
f 48/58/48 49/61/49 24/60/24
f 24/60/24 20/57/20 48/58/48
f 49/61/49 50/64/50 28/63/28
f 28/63/28 24/60/24 49/61/49
f 50/64/50 51/95/51 32/94/32
f 32/94/32 28/63/28 50/64/50
f 16/4/16 15/5/15 40/72/40
f 40/72/40 39/68/39 16/4/16
f 15/5/15 14/6/14 41/71/41
f 41/71/41 40/72/40 15/5/15
f 14/6/14 13/1/13 42/7/42
f 42/7/42 41/71/41 14/6/14
f 39/68/39 40/72/40 52/70/52
f 52/70/52 51/67/51 39/68/39
f 40/72/40 41/71/41 53/76/53
f 53/76/53 52/70/52 40/72/40
f 41/71/41 42/7/42 54/75/54
f 54/75/54 53/76/53 41/71/41
f 51/67/51 52/70/52 31/69/31
f 31/69/31 32/66/32 51/67/51
f 52/70/52 53/76/53 30/74/30
f 30/74/30 31/69/31 52/70/52
f 53/76/53 54/75/54 29/73/29
f 29/73/29 30/74/30 53/76/53
f 13/35/13 9/36/9 43/38/43
f 43/38/43 42/37/42 13/35/13
f 9/36/9 5/33/5 44/34/44
f 44/34/44 43/38/43 9/36/9
f 5/33/5 1/79/1 33/80/33
f 33/80/33 44/34/44 5/33/5
f 42/37/42 43/38/43 55/39/55
f 55/39/55 54/40/54 42/37/42
f 43/38/43 44/34/44 56/32/56
f 56/32/56 55/39/55 43/38/43
f 44/34/44 33/80/33 45/78/45
f 45/78/45 56/32/56 44/34/44
f 54/40/54 55/39/55 25/41/25
f 25/41/25 29/42/29 54/40/54
f 55/39/55 56/32/56 21/31/21
f 21/31/21 25/41/25 55/39/55
f 56/32/56 45/78/45 17/77/17
f 17/77/17 21/31/21 56/32/56
# 108 faces

g
